<?xml version="1.0" standalone="no"?><!DOCTYPE svg PUBLIC "-//W3C//DTD SVG 1.1//EN" "http://www.w3.org/Graphics/SVG/1.1/DTD/svg11.dtd"><svg t="1593509702422" class="icon" viewBox="0 0 1024 1024" version="1.1" xmlns="http://www.w3.org/2000/svg" p-id="1858" width="200" height="200" xmlns:xlink="http://www.w3.org/1999/xlink"><defs><style type="text/css"></style></defs><path d="M512 549.76a34.56 34.56 0 0 1-16-3.84L295.04 429.44a30.72 30.72 0 0 1-16-27.52V169.6a30.72 30.72 0 0 1 16-27.52L496 26.24a32 32 0 0 1 32 0l200.96 115.84a30.72 30.72 0 0 1 16 27.52v232.32a30.72 30.72 0 0 1-16 27.52L528 545.92a34.56 34.56 0 0 1-16 3.84zM343.04 384L512 481.28 680.96 384V188.16L512 90.24 343.04 188.16zM256 992a27.52 27.52 0 0 1-16-4.48l-204.8-115.84a33.28 33.28 0 0 1-16-28.16V611.84a33.28 33.28 0 0 1 16-28.16L236.8 467.84a32 32 0 0 1 32 0l200.96 115.84a33.28 33.28 0 0 1 16 28.16v231.68a33.28 33.28 0 0 1-16 28.16L268.8 987.52a30.08 30.08 0 0 1-12.8 4.48z m-172.8-166.4L256 922.88l165.76-97.28V630.4L256 532.48 83.2 630.4zM771.2 992a30.08 30.08 0 0 1-16-4.48l-200.96-115.84a33.28 33.28 0 0 1-16-28.16V611.84a33.28 33.28 0 0 1 16-28.16l200.96-115.84a32 32 0 0 1 32 0l201.6 115.84a33.28 33.28 0 0 1 16 28.16v231.68a33.28 33.28 0 0 1-16 28.16l-201.6 115.84a27.52 27.52 0 0 1-16 4.48z m-168.96-166.4l168.96 97.28 169.6-97.28V630.4l-169.6-97.92-168.96 97.92z"  p-id="1859"></path></svg>