<svg t="1592914889352" class="icon" viewBox="0 0 1024 1024" version="1.1" xmlns="http://www.w3.org/2000/svg" p-id="1697" width="200" height="200"><path d="M655.3 283.9c52.9 0 95.6-42.7 95.6-95.6s-42.7-95.6-95.6-95.6c-52.9 0-95.6 42.7-95.6 95.6 0 53.3 42.7 95.6 95.6 95.6z m156.9-26.8c-54.6 76.7-128.2 85.5-207.1 38.8-5.3-3.1-29.1-16.3-34.4-19.4-126.9-75.4-253.8-45.8-338.9 73.2-36.1 50.7 47.6 98.7 83.3 48.5 44.1-61.7 100-79.3 160.8-59.9-31.3 54.2-58.6 108.4-97.4 185.1s-123.8 137.9-205.8 89.9c-59.1-34.4-112.4 50.2-53.3 85 111.9 65.2 243.3 25.1 310.2-59.9 2.2 1.3 4.8 2.2 7.5 3.1 54.6 18.9 126.5 69.6 148.1 87.7 22 18.1 59.5 109.7 81.5 155.6 26.9 56 114.6 15 87.3-41-25.1-52.4-67.9-156.4-100.9-182.9-26.4-21.2-78-60.4-121.6-82.8 29.5-57.3 60.4-113.7 92.5-169.7 103.1 31.7 201.4-5.7 271.5-103.6 36.1-49.9-47.6-98.4-83.3-47.7z" fill="" p-id="1698"></path></svg>