<svg t="1592915018322" class="icon" viewBox="0 0 1024 1024" version="1.1" xmlns="http://www.w3.org/2000/svg" p-id="3177" width="200" height="200"><path d="M328.992 168.992L224 274.016 183.008 232.96 136.96 279.04l64 64 23.008 21.984 23.008-21.984 128-128L328.96 168.96zM480 224v64h416V224H480z m-151.008 200.992L224 529.984l-40.992-40.96-46.016 45.984 64 64 23.008 21.984 23.008-21.984 128-128-46.016-46.016zM480 480v64h416v-64H480z m-151.008 200.992L224 786.016 183.008 744.96 136.96 791.04l64 64 23.008 21.984 23.008-21.984 128-128-46.016-46.016zM480 736v64h416v-64H480z" p-id="3178"></path></svg>